<svg version="1.1" id="Layer_1" xmlns="http://www.w3.org/2000/svg" xmlns:xlink="http://www.w3.org/1999/xlink" x="0px" y="0px"
	 width="100%" viewBox="0 0 213 111" enable-background="new 0 0 213 111" xml:space="preserve">
<path fill="#88B73B" opacity="1.000000" stroke="none" 
	d="
M70.000000,112.000000 
	C47.033028,112.000000 24.066055,112.000000 1.049542,112.000000 
	C1.049542,75.086212 1.049542,38.172348 1.049542,1.000000 
	C42.353870,1.000000 83.708275,1.000000 125.695831,1.412066 
	C125.935959,9.861896 125.542946,17.899660 125.131638,26.311527 
	C124.433075,26.311527 123.466568,26.356651 122.505310,26.304630 
	C111.381386,25.702627 101.054710,28.390995 91.535744,34.064194 
	C65.462463,49.603584 52.865730,81.816841 69.263115,109.683975 
	C69.663719,110.364792 69.761162,111.223999 70.000000,112.000000 
z"/>
<path fill="#252120" opacity="1.000000" stroke="none" 
	d="
M70.399994,112.000000 
	C69.761162,111.223999 69.663719,110.364792 69.263115,109.683975 
	C52.865730,81.816841 65.462463,49.603584 91.535744,34.064194 
	C101.054710,28.390995 111.381386,25.702627 122.505310,26.304630 
	C123.466568,26.356651 124.433075,26.311527 125.131638,26.311527 
	C125.542946,17.899660 125.935959,9.861896 126.164490,1.412066 
	C138.687561,1.000000 151.375122,1.000000 164.429810,1.330061 
	C157.782745,11.435708 155.969345,22.126446 158.598114,33.843281 
	C159.477341,37.762062 161.408905,39.402931 165.207260,39.694317 
	C162.251740,16.499846 162.251740,16.499846 167.000000,1.000000 
	C168.066666,1.000000 169.133347,1.000000 170.498672,1.345445 
	C166.962357,8.736259 165.153183,16.302345 165.997284,24.251884 
	C167.978683,42.912029 169.638916,44.825092 188.877411,46.107483 
	C198.236221,46.731316 206.207748,42.513973 214.000000,38.000000 
	C214.000000,48.687561 214.000000,59.375122 213.597382,70.382378 
	C201.486053,73.571976 189.639114,73.861015 177.194260,72.101593 
	C179.957184,86.498848 177.713943,99.630104 171.000000,112.000000 
	C169.933334,112.000000 168.866653,112.000000 167.522003,111.675987 
	C174.422821,99.984833 176.523193,87.705421 174.146149,74.509956 
	C173.539734,71.143600 172.068130,69.507462 168.474442,69.729790 
	C168.474442,75.951065 169.639893,82.354294 168.195923,88.101974 
	C166.131470,96.319427 162.158142,104.057312 159.000000,112.000000 
	C132.312439,112.000000 105.624878,112.000000 78.507126,111.638924 
	C77.511261,110.264244 76.966476,109.238319 76.376793,108.238884 
	C65.708481,90.157471 66.719353,69.016251 79.030457,52.865700 
	C91.564301,36.422935 111.813492,29.323050 131.957184,35.015659 
	C141.047119,37.584473 149.781830,41.407925 158.683289,44.646770 
	C165.084671,46.975948 171.373032,49.741749 177.932816,51.477665 
	C186.111267,53.641933 194.263290,52.990993 203.190063,48.277382 
	C201.047760,48.150642 200.255615,47.917789 199.565018,48.090664 
	C188.206558,50.934013 177.514496,48.630039 166.913406,44.371735 
	C155.957642,39.970959 144.927841,35.706802 133.746399,31.927277 
	C118.880119,26.902201 104.830505,29.590721 91.699097,37.779747 
	C72.383507,49.825367 61.786270,71.741982 66.221367,92.188881 
	C67.705894,99.032997 71.345490,105.409660 74.000000,112.000000 
	C72.933327,112.000000 71.866661,112.000000 70.399994,112.000000 
M146.953247,77.744118 
	C144.522064,61.889465 139.151215,55.346653 123.072159,54.460983 
	C112.661049,53.887512 104.298027,57.648586 98.605659,66.108810 
	C92.828873,74.694504 93.552612,83.933578 98.901245,92.513260 
	C104.440727,101.399071 111.866898,107.939209 123.231369,107.195343 
	C136.894958,106.300987 146.485245,94.565727 146.953247,77.744118 
z"/>
<path fill="#88B63B" opacity="1.000000" stroke="none" 
	d="
M214.000000,37.531342 
	C206.207748,42.513973 198.236221,46.731316 188.877411,46.107483 
	C169.638916,44.825092 167.978683,42.912029 165.997284,24.251884 
	C165.153183,16.302345 166.962357,8.736259 170.898666,1.345445 
	C185.254486,1.000000 199.508987,1.000000 214.000000,1.000000 
	C214.000000,13.019861 214.000000,25.041273 214.000000,37.531342 
z"/>
<path fill="#87B63B" opacity="1.000000" stroke="none" 
	d="
M171.468658,112.000000 
	C177.713943,99.630104 179.957184,86.498848 177.194260,72.101593 
	C189.639114,73.861015 201.486053,73.571976 213.597382,70.851036 
	C214.000000,84.595093 214.000000,98.190178 214.000000,112.000000 
	C199.979843,112.000000 185.958572,112.000000 171.468658,112.000000 
z"/>
<path fill="#7FAA39" opacity="1.000000" stroke="none" 
	d="
M74.399994,112.000000 
	C71.345490,105.409660 67.705894,99.032997 66.221367,92.188881 
	C61.786270,71.741982 72.383507,49.825367 91.699097,37.779747 
	C104.830505,29.590721 118.880119,26.902201 133.746399,31.927277 
	C144.927841,35.706802 155.957642,39.970959 166.913406,44.371735 
	C177.514496,48.630039 188.206558,50.934013 199.565018,48.090664 
	C200.255615,47.917789 201.047760,48.150642 203.190063,48.277382 
	C194.263290,52.990993 186.111267,53.641933 177.932816,51.477665 
	C171.373032,49.741749 165.084671,46.975948 158.683289,44.646770 
	C149.781830,41.407925 141.047119,37.584473 131.957184,35.015659 
	C111.813492,29.323050 91.564301,36.422935 79.030457,52.865700 
	C66.719353,69.016251 65.708481,90.157471 76.376793,108.238884 
	C76.966476,109.238319 77.511261,110.264244 78.038467,111.638924 
	C76.933327,112.000000 75.866661,112.000000 74.399994,112.000000 
z"/>
<path fill="#84B13A" opacity="1.000000" stroke="none" 
	d="
M159.444168,112.000000 
	C162.158142,104.057312 166.131470,96.319427 168.195923,88.101974 
	C169.639893,82.354294 168.474442,75.951065 168.474442,69.729790 
	C172.068130,69.507462 173.539734,71.143600 174.146149,74.509956 
	C176.523193,87.705421 174.422821,99.984833 167.122009,111.675987 
	C164.629440,112.000000 162.258896,112.000000 159.444168,112.000000 
z"/>
<path fill="#81AC39" opacity="1.000000" stroke="none" 
	d="
M166.666672,1.000000 
	C162.251740,16.499846 162.251740,16.499846 165.207260,39.694317 
	C161.408905,39.402931 159.477341,37.762062 158.598114,33.843281 
	C155.969345,22.126446 157.782745,11.435708 164.898468,1.330061 
	C165.444443,1.000000 165.888901,1.000000 166.666672,1.000000 
z"/>
<path fill="#87B63B" opacity="1.000000" stroke="none" 
	d="
M146.968201,78.183586 
	C146.485245,94.565727 136.894958,106.300987 123.231369,107.195343 
	C111.866898,107.939209 104.440727,101.399071 98.901245,92.513260 
	C93.552612,83.933578 92.828873,74.694504 98.605659,66.108810 
	C104.298027,57.648586 112.661049,53.887512 123.072159,54.460983 
	C139.151215,55.346653 144.522064,61.889465 146.968201,78.183586 
z"/>
</svg>