<?xml version="1.0" standalone="no"?>
<!DOCTYPE svg PUBLIC "-//W3C//DTD SVG 20010904//EN"
 "http://www.w3.org/TR/2001/REC-SVG-20010904/DTD/svg10.dtd">
<svg version="1.0" xmlns="http://www.w3.org/2000/svg"
 width="240.000000pt" height="342.000000pt" viewBox="0 0 240.000000 342.000000"
 preserveAspectRatio="xMidYMid meet">

<g transform="translate(0.000000,342.000000) scale(0.100000,-0.100000)"
fill="#000000" stroke="none">
<path d="M1162 3355 c-7 -8 -25 -15 -40 -15 -43 0 -125 -46 -158 -88 -44 -54
-73 -131 -84 -219 -13 -101 -10 -109 48 -118 66 -10 510 -7 547 3 l30 9 -1 85
c-2 96 -29 177 -80 241 -32 41 -113 87 -154 87 -14 0 -35 7 -46 15 -24 18 -45
18 -62 0z m102 -144 c11 -18 -6 -71 -23 -71 -36 0 -54 43 -29 68 14 14 44 16
52 3z m-99 -61 c-3 -5 -13 -10 -21 -10 -8 0 -12 5 -9 10 3 6 13 10 21 10 8 0
12 -4 9 -10z m103 -118 l3 -52 -70 0 c-41 0 -71 4 -71 10 0 6 15 10 33 10 42
1 78 29 80 63 3 47 22 23 25 -31z"/>
<path d="M894 2401 c-18 -11 -35 -24 -38 -30 -4 -6 -16 -11 -26 -11 -11 0
-102 -41 -202 -90 -101 -50 -199 -99 -218 -108 -41 -20 -84 -80 -104 -144 -28
-92 -158 -374 -198 -430 -15 -21 5 -46 82 -97 87 -59 225 -100 333 -101 60 0
63 -6 76 -173 22 -262 4 -901 -28 -1007 -20 -65 -15 -84 32 -111 l42 -24 555
0 555 0 65 33 c98 50 95 43 64 158 -26 96 -27 107 -24 334 1 129 3 258 4 285
1 50 1 50 -36 59 -25 6 -38 16 -41 30 -3 15 -5 12 -6 -9 -3 -50 -43 -85 -96
-85 -32 0 -85 50 -85 80 0 55 63 107 114 94 17 -4 21 0 22 21 3 42 49 103 86
113 l33 9 -3 98 -3 98 58 -7 c120 -13 270 29 362 102 l24 19 -48 139 c-58 170
-95 252 -175 388 -71 122 -103 152 -209 197 -42 18 -83 38 -91 44 -16 12 -145
63 -215 85 -22 7 -53 19 -68 27 -25 13 -43 12 -160 -8 -147 -25 -227 -20 -343
20 -32 12 -58 21 -59 21 0 0 -14 -9 -31 -19z m-99 -209 c35 -25 91 -168 73
-189 -18 -22 -42 -15 -63 20 l-19 32 -4 -33 c-4 -42 -26 -51 -57 -22 -32 30
-41 21 -21 -19 21 -40 20 -58 -3 -71 -11 -5 -22 -10 -25 -10 -9 0 -55 83 -71
129 -13 38 -13 46 0 71 16 32 44 45 75 35 13 -4 20 -2 20 7 0 27 31 58 58 58
15 0 32 -4 37 -8z m256 -337 c-1 -15 -24 -12 -29 3 -3 9 2 13 12 10 10 -1 17
-7 17 -13z m79 -4 c0 -4 -13 -8 -30 -9 -30 -2 -42 12 -17 21 15 5 47 -3 47
-12z m51 6 c-1 -12 -15 -9 -19 4 -3 6 1 10 8 8 6 -3 11 -8 11 -12z m79 -8 c0
-5 -13 -9 -30 -9 -28 0 -38 9 -25 22 8 8 55 -3 55 -13z m107 -1 c-3 -8 -6 -5
-6 6 -1 11 2 17 5 13 3 -3 4 -12 1 -19z m-22 2 c-3 -5 -13 -10 -21 -10 -8 0
-12 5 -9 10 3 6 13 10 21 10 8 0 12 -4 9 -10z m75 -61 c0 -53 -2 -59 -21 -59
-28 0 -59 18 -59 34 0 7 14 25 30 39 17 15 30 34 30 43 0 8 5 12 10 9 6 -3 10
-33 10 -66z m-110 9 c24 -26 24 -28 4 -56 -16 -24 -71 -31 -91 -11 -8 8 -13 8
-17 0 -4 -6 -20 -11 -36 -11 -34 0 -47 28 -30 61 9 17 18 20 43 15 20 -3 39 0
51 9 28 21 52 19 76 -7z m-204 -53 c-7 -26 -8 -27 -21 -9 -9 12 -14 14 -15 6
0 -9 -7 -11 -20 -7 -15 5 -20 2 -20 -11 0 -13 -3 -15 -11 -7 -6 6 -9 23 -7 39
2 24 8 29 30 29 14 0 30 3 34 8 15 15 37 -20 30 -48z m141 -136 l-5 -40 51
-24 c29 -14 77 -39 107 -56 30 -17 66 -34 80 -39 l25 -8 -28 -1 c-17 -1 -60
18 -110 48 -102 61 -178 83 -237 68 -34 -9 -43 -9 -51 3 -9 13 -10 13 -6 0 2
-9 -14 -29 -39 -48 -72 -57 -100 -173 -60 -253 19 -37 19 -39 7 -39 -5 0 -18
19 -30 43 -15 29 -21 34 -18 17 3 -14 8 -33 12 -42 5 -13 0 -18 -27 -23 -19
-4 -52 -5 -73 -3 l-40 3 2 215 c1 118 3 216 3 218 0 1 100 2 221 2 l222 0 -6
-41z m373 -44 c0 -73 -3 -86 -19 -95 -32 -16 -93 -11 -141 12 -25 12 -52 22
-60 22 -19 1 -26 68 -10 107 14 33 26 36 143 38 l87 1 0 -85z m-140 -222 c3
-3 -8 -3 -24 -1 -27 5 -28 5 -23 -28 3 -19 2 -34 -4 -34 -5 0 -9 -9 -9 -20 0
-20 -46 -58 -57 -47 -3 4 4 29 16 56 11 27 21 61 21 75 0 23 1 24 38 14 20 -5
39 -12 42 -15z m-461 -982 c8 -15 2 -35 -28 -92 -69 -134 -84 -158 -98 -164
-19 -7 -53 12 -53 29 0 7 -17 24 -37 37 -93 61 -39 170 77 154 45 -6 49 -5 69
24 25 35 55 40 70 12z"/>
<path d="M1376 1783 c-12 -12 -6 -33 9 -33 8 0 15 6 15 14 0 17 -14 28 -24 19z"/>
<path d="M1232 1788 c-20 -20 -14 -37 15 -44 29 -8 56 17 46 42 -6 17 -45 18
-61 2z"/>
<path d="M1156 1777 c-15 -11 -15 -15 -3 -31 17 -23 47 -15 47 13 0 24 -23 33
-44 18z"/>
<path d="M1158 1583 c12 -2 30 -2 40 0 9 3 -1 5 -23 4 -22 0 -30 -2 -17 -4z"/>
<path d="M1024 1537 c-38 -21 -94 -99 -94 -129 0 -7 13 8 28 34 16 26 43 61
62 78 36 32 37 36 4 17z"/>
<path d="M922 1350 c0 -19 2 -27 5 -17 2 9 2 25 0 35 -3 9 -5 1 -5 -18z"/>
<path d="M840 244 c-11 -12 -10 -18 4 -32 16 -16 18 -16 32 2 8 11 14 26 14
33 0 18 -35 16 -50 -3z"/>
<path d="M1798 1116 c-33 -25 -19 -101 20 -111 36 -9 54 17 50 75 -3 40 -6 45
-28 47 -14 2 -33 -3 -42 -11z"/>
<path d="M1656 1004 c-21 -20 -20 -26 5 -58 34 -43 79 -29 79 24 0 14 -5 31
-12 38 -17 17 -54 15 -72 -4z"/>
</g>
</svg>
